REM DIRINDEX 1\2,1\3,1\4
REM DIRNAME folder01,folder02,folder03,folder04
TITLE ""
FILE "125 125_TOEFL_3900.mp3" MP3
  TRACK 01 AUDIO
    TITLE "2:cjc151_5425"
    INDEX 01 00:00:00
  TRACK 02 AUDIO
    TITLE "0:"
    INDEX 01 00:01:24
  TRACK 03 AUDIO
    TITLE "3:cjc151_5426"
    INDEX 01 00:03:06
  TRACK 04 AUDIO
    TITLE "0:"
    INDEX 01 00:07:66
  TRACK 05 AUDIO
    TITLE "2:cjc151_5427"
    INDEX 01 00:09:44
  TRACK 06 AUDIO
    TITLE "0:"
    INDEX 01 00:10:63
  TRACK 07 AUDIO
    TITLE "3:cjc151_5428"
    INDEX 01 00:12:40
  TRACK 08 AUDIO
    TITLE "0:"
    INDEX 01 00:16:51
  TRACK 09 AUDIO
    TITLE "2:cjc151_5429"
    INDEX 01 00:18:29
  TRACK 10 AUDIO
    TITLE "0:"
    INDEX 01 00:19:36
  TRACK 11 AUDIO
    TITLE "3:cjc151_5430"
    INDEX 01 00:21:15
  TRACK 12 AUDIO
    TITLE "0:"
    INDEX 01 00:25:13
  TRACK 13 AUDIO
    TITLE "2:cjc151_5431"
    INDEX 01 00:26:66
  TRACK 14 AUDIO
    TITLE "0:"
    INDEX 01 00:28:23
  TRACK 15 AUDIO
    TITLE "3:cjc151_5432"
    INDEX 01 00:30:03
  TRACK 16 AUDIO
    TITLE "0:"
    INDEX 01 00:35:06
  TRACK 17 AUDIO
    TITLE "2:cjc151_5433"
    INDEX 01 00:36:58
  TRACK 18 AUDIO
    TITLE "0:"
    INDEX 01 00:37:69
  TRACK 19 AUDIO
    TITLE "3:cjc151_5434"
    INDEX 01 00:39:51
  TRACK 20 AUDIO
    TITLE "0:"
    INDEX 01 00:43:58
  TRACK 21 AUDIO
    TITLE "2:cjc151_5435"
    INDEX 01 00:45:35
  TRACK 22 AUDIO
    TITLE "0:"
    INDEX 01 00:46:49
  TRACK 23 AUDIO
    TITLE "3:cjc151_5436"
    INDEX 01 00:48:28
  TRACK 24 AUDIO
    TITLE "0:"
    INDEX 01 00:52:47
  TRACK 25 AUDIO
    TITLE "2:cjc151_5437"
    INDEX 01 00:54:27
  TRACK 26 AUDIO
    TITLE "0:"
    INDEX 01 00:55:44
  TRACK 27 AUDIO
    TITLE "3:cjc151_5438"
    INDEX 01 00:57:21
  TRACK 28 AUDIO
    TITLE "0:"
    INDEX 01 01:02:01
  TRACK 29 AUDIO
    TITLE "2:cjc151_5439"
    INDEX 01 01:03:53
  TRACK 30 AUDIO
    TITLE "0:"
    INDEX 01 01:04:74
  TRACK 31 AUDIO
    TITLE "3:cjc151_5440"
    INDEX 01 01:06:53
  TRACK 32 AUDIO
    TITLE "0:"
    INDEX 01 01:10:12
  TRACK 33 AUDIO
    TITLE "2:cjc151_5441"
    INDEX 01 01:11:66
  TRACK 34 AUDIO
    TITLE "0:"
    INDEX 01 01:12:73
  TRACK 35 AUDIO
    TITLE "3:cjc151_5442"
    INDEX 01 01:14:47
  TRACK 36 AUDIO
    TITLE "0:"
    INDEX 01 01:19:01
  TRACK 37 AUDIO
    TITLE "2:cjc151_5443"
    INDEX 01 01:20:53
  TRACK 38 AUDIO
    TITLE "0:"
    INDEX 01 01:21:72
  TRACK 39 AUDIO
    TITLE "3:cjc151_5444"
    INDEX 01 01:23:52
  TRACK 40 AUDIO
    TITLE "0:"
    INDEX 01 01:28:71
  TRACK 41 AUDIO
    TITLE "2:cjc151_5445"
    INDEX 01 01:30:46
  TRACK 42 AUDIO
    TITLE "0:"
    INDEX 01 01:31:47
  TRACK 43 AUDIO
    TITLE "3:cjc151_5446"
    INDEX 01 01:33:27
  TRACK 44 AUDIO
    TITLE "0:"
    INDEX 01 01:36:62
  TRACK 45 AUDIO
    TITLE "2:cjc151_5447"
    INDEX 01 01:38:42
  TRACK 46 AUDIO
    TITLE "0:"
    INDEX 01 01:39:57
  TRACK 47 AUDIO
    TITLE "3:cjc151_5448"
    INDEX 01 01:41:34
  TRACK 48 AUDIO
    TITLE "0:"
    INDEX 01 01:46:16
  TRACK 49 AUDIO
    TITLE "2:cjc151_5449"
    INDEX 01 01:47:68
  TRACK 50 AUDIO
    TITLE "0:"
    INDEX 01 01:49:14
  TRACK 51 AUDIO
    TITLE "3:cjc151_5450"
    INDEX 01 01:50:66
  TRACK 52 AUDIO
    TITLE "0:"
    INDEX 01 01:55:16
  TRACK 53 AUDIO
    TITLE "2:cjc151_5451"
    INDEX 01 01:56:69
  TRACK 54 AUDIO
    TITLE "0:"
    INDEX 01 01:58:29
  TRACK 55 AUDIO
    TITLE "3:cjc151_5452"
    INDEX 01 02:00:06
  TRACK 56 AUDIO
    TITLE "0:"
    INDEX 01 02:04:19
  TRACK 57 AUDIO
    TITLE "2:cjc151_5453"
    INDEX 01 02:05:74
  TRACK 58 AUDIO
    TITLE "0:"
    INDEX 01 02:07:26
  TRACK 59 AUDIO
    TITLE "3:cjc151_5454"
    INDEX 01 02:09:05
  TRACK 60 AUDIO
    TITLE "0:"
    INDEX 01 02:14:02
  TRACK 61 AUDIO
    TITLE "2:cjc151_5455"
    INDEX 01 02:15:56
  TRACK 62 AUDIO
    TITLE "0:"
    INDEX 01 02:17:12
  TRACK 63 AUDIO
    TITLE "3:cjc151_5456"
    INDEX 01 02:18:66
  TRACK 64 AUDIO
    TITLE "0:"
    INDEX 01 02:22:72
  TRACK 65 AUDIO
    TITLE "2:cjc151_5457"
    INDEX 01 02:24:51
  TRACK 66 AUDIO
    TITLE "0:"
    INDEX 01 02:25:63
  TRACK 67 AUDIO
    TITLE "3:cjc151_5458"
    INDEX 01 02:27:42
  TRACK 68 AUDIO
    TITLE "0:"
    INDEX 01 02:32:31
  TRACK 69 AUDIO
    TITLE "2:cjc151_5459"
    INDEX 01 02:34:09
  TRACK 70 AUDIO
    TITLE "0:"
    INDEX 01 02:35:28
  TRACK 71 AUDIO
    TITLE "3:cjc151_5460"
    INDEX 01 02:37:05
  TRACK 72 AUDIO
    TITLE "0:"
    INDEX 01 02:41:21
  TRACK 73 AUDIO
    TITLE "2:cjc151_5461"
    INDEX 01 02:43:00
  TRACK 74 AUDIO
    TITLE "0:"
    INDEX 01 02:44:09
  TRACK 75 AUDIO
    TITLE "3:cjc151_5462"
    INDEX 01 02:45:63
  TRACK 76 AUDIO
    TITLE "0:"
    INDEX 01 02:49:44
  TRACK 77 AUDIO
    TITLE "2:cjc151_5463"
    INDEX 01 02:51:23
  TRACK 78 AUDIO
    TITLE "0:"
    INDEX 01 02:52:52
  TRACK 79 AUDIO
    TITLE "3:cjc151_5464"
    INDEX 01 02:54:31
  TRACK 80 AUDIO
    TITLE "0:"
    INDEX 01 02:58:15
  TRACK 81 AUDIO
    TITLE "2:cjc151_5465"
    INDEX 01 02:59:67
  TRACK 82 AUDIO
    TITLE "0:"
    INDEX 01 03:01:19
  TRACK 83 AUDIO
    TITLE "3:cjc151_5466"
    INDEX 01 03:02:74
  TRACK 84 AUDIO
    TITLE "0:"
    INDEX 01 03:06:66
  TRACK 85 AUDIO
    TITLE "2:cjc151_5467"
    INDEX 01 03:08:47
  TRACK 86 AUDIO
    TITLE "0:"
    INDEX 01 03:09:66
  TRACK 87 AUDIO
    TITLE "3:cjc151_5468"
    INDEX 01 03:11:43
  TRACK 88 AUDIO
    TITLE "0:"
    INDEX 01 03:16:09
